<svg width="50" height="50" viewBox="0 0 50 50" fill="none" xmlns="http://www.w3.org/2000/svg">
<g id="&#228;&#184;&#138;&#227;&#129;&#171;&#230;&#136;&#187;&#227;&#130;&#139;">
<path id="Vector" d="M6.25006 39.9168H43.7501C44.1297 39.9156 44.5019 39.8109 44.8265 39.6139C45.151 39.417 45.4158 39.1352 45.5921 38.799C45.7685 38.4628 45.8498 38.0848 45.8274 37.7058C45.8049 37.3268 45.6795 36.9611 45.4646 36.6481L26.7146 9.56472C25.9376 8.44181 24.0667 8.44181 23.2876 9.56472L4.53756 36.6481C4.32052 36.9604 4.19325 37.3263 4.16957 37.706C4.14588 38.0856 4.22669 38.4645 4.40321 38.8014C4.57973 39.1383 4.84521 39.4205 5.17081 39.6171C5.49642 39.8137 5.86968 39.9174 6.25006 39.9168Z" fill="black"/>
</g>
</svg>
